<svg version="1.1" id="Layer_1" xmlns="http://www.w3.org/2000/svg" xmlns:xlink="http://www.w3.org/1999/xlink" x="0px" y="0px"
	 width="100%" viewBox="0 0 200 200" enable-background="new 0 0 200 200" xml:space="preserve">
<path fill="#FEFEFE" opacity="1.000000" stroke="none" 
	d="
M116.000000,201.000000 
	C77.357201,201.000000 39.214397,201.000000 1.035799,201.000000 
	C1.035799,134.398911 1.035799,67.797783 1.035799,1.098330 
	C67.559296,1.098330 134.118790,1.098330 200.839142,1.098330 
	C200.839142,67.666351 200.839142,134.333145 200.839142,201.000000 
	C172.798065,201.000000 144.649033,201.000000 116.000000,201.000000 
M160.076172,44.123077 
	C158.584854,43.376057 157.095703,41.981747 155.601898,41.976761 
	C119.113052,41.854980 82.623703,41.877407 46.134457,41.895138 
	C44.858799,41.895756 43.583244,42.113419 42.459431,42.216057 
	C42.212624,42.850750 41.994595,43.149975 41.994221,43.449471 
	C41.946980,81.269302 41.898758,119.089188 41.972679,156.908844 
	C41.974720,157.952896 43.296883,158.994385 44.938522,160.097473 
	C83.195190,160.097473 121.451851,160.097473 159.999329,160.097473 
	C159.999329,121.260437 159.999329,83.130211 160.076172,44.123077 
z"/>
<path fill="#B3B3B3" opacity="1.000000" stroke="none" 
	d="
M44.003464,160.037064 
	C43.296883,158.994385 41.974720,157.952896 41.972679,156.908844 
	C41.898758,119.089188 41.946980,81.269302 41.994221,43.449471 
	C41.994595,43.149975 42.212624,42.850750 42.459431,42.216057 
	C43.583244,42.113419 44.858799,41.895756 46.134457,41.895138 
	C82.623703,41.877407 119.113052,41.854980 155.601898,41.976761 
	C157.095703,41.981747 158.584854,43.376057 159.820877,44.559296 
	C159.565582,44.995510 159.131805,44.991219 159.020966,44.584686 
	C157.257294,43.786545 155.605087,43.056271 153.951553,43.053181 
	C118.692108,42.987339 83.432510,42.999569 48.172943,43.014534 
	C46.577297,43.015213 44.981724,43.184246 43.278648,43.280972 
	C43.158459,44.900658 43.000271,46.041393 42.999832,47.182190 
	C42.986042,83.106895 42.976398,119.031616 43.029114,154.956253 
	C43.031151,156.345688 43.654690,157.734207 43.992523,159.351624 
	C43.996418,159.580109 44.003460,160.037064 44.003464,160.037064 
z"/>
<path fill="#B7B7B7" opacity="1.000000" stroke="none" 
	d="
M159.131805,44.991219 
	C159.131805,44.991219 159.565582,44.995510 159.782455,44.997746 
	C159.999329,83.130211 159.999329,121.260437 159.999329,160.097473 
	C121.451851,160.097473 83.195190,160.097473 44.470993,160.067261 
	C44.003460,160.037064 43.996418,159.580109 44.460548,159.307007 
	C82.802872,159.033920 120.681061,159.033920 158.996307,159.033920 
	C158.996307,156.448242 158.994354,154.648010 158.996597,152.847778 
	C159.041382,116.895592 159.086639,80.943405 159.131805,44.991219 
z"/>
<path fill="#FEFEFE" opacity="1.000000" stroke="none" 
	d="
M159.020966,44.584686 
	C159.086639,80.943405 159.041382,116.895592 158.996597,152.847778 
	C158.994354,154.648010 158.996307,156.448242 158.996307,159.033920 
	C120.681061,159.033920 82.802872,159.033920 44.456654,159.078537 
	C43.654690,157.734207 43.031151,156.345688 43.029114,154.956253 
	C42.976398,119.031616 42.986042,83.106895 42.999832,47.182190 
	C43.000271,46.041393 43.158459,44.900658 43.278648,43.280972 
	C44.981724,43.184246 46.577297,43.015213 48.172943,43.014534 
	C83.432510,42.999569 118.692108,42.987339 153.951553,43.053181 
	C155.605087,43.056271 157.257294,43.786545 159.020966,44.584686 
M109.355179,96.112526 
	C108.879936,96.093361 108.404686,96.074196 107.671135,95.240021 
	C106.655830,94.366768 105.757545,93.006241 104.599319,92.728096 
	C102.580139,92.243202 100.400810,92.425148 98.206932,91.561768 
	C97.233742,86.752449 99.402260,84.859879 104.067245,85.103783 
	C106.484116,85.230148 108.913048,85.126015 111.854935,85.126015 
	C111.854935,81.260216 112.153473,77.953392 111.692741,74.755974 
	C111.531830,73.639236 109.499168,72.792213 108.205910,71.020218 
	C107.794617,70.261978 107.393188,68.848541 106.970573,68.842171 
	C98.401222,68.713173 89.829437,68.745499 81.229675,68.745499 
	C81.229675,91.548248 81.229675,113.677200 81.229675,135.884995 
	C82.490219,136.093719 83.630508,136.282532 84.734825,137.275467 
	C85.485199,138.139450 86.183090,139.687027 86.995018,139.749390 
	C90.559776,140.023117 94.157509,139.867401 98.120567,139.867401 
	C98.120567,130.493683 98.224617,121.876587 98.066795,113.264282 
	C98.007790,110.044647 99.055672,108.706818 102.359268,108.972778 
	C105.101501,109.193550 107.875648,109.017975 110.796555,109.017975 
	C110.796555,104.533836 110.796555,100.747276 110.789474,96.530190 
	C110.626465,96.218826 110.381371,96.127419 109.355179,96.112526 
M117.124786,129.124069 
	C115.072632,130.124954 112.478897,130.685242 111.171677,132.292130 
	C110.388947,133.254288 111.031799,136.394592 112.109863,137.563782 
	C113.173965,138.717834 115.752052,139.316345 117.387383,138.941925 
	C121.864342,137.916855 122.002480,133.208694 117.124786,129.124069 
z"/>
<path fill="#050505" opacity="1.000000" stroke="none" 
	d="
M98.288612,92.327591 
	C100.400810,92.425148 102.580139,92.243202 104.599319,92.728096 
	C105.757545,93.006241 106.655830,94.366768 107.693268,96.081223 
	C107.706299,98.083649 107.555565,99.264565 107.713654,100.402565 
	C108.269562,104.403999 106.910454,106.292053 102.594063,105.746735 
	C100.205719,105.444992 97.747955,105.692635 94.756706,105.692635 
	C94.756706,116.202850 94.756706,126.060059 94.756706,135.980072 
	C91.036209,136.163101 87.903496,136.317215 84.770790,136.471344 
	C83.630508,136.282532 82.490219,136.093719 81.229675,135.884995 
	C81.229675,113.677200 81.229675,91.548248 81.229675,68.745499 
	C89.829437,68.745499 98.401222,68.713173 106.970573,68.842171 
	C107.393188,68.848541 107.794617,70.261978 108.185425,71.885605 
	C108.164948,75.671257 108.164948,78.591515 108.164948,81.986389 
	C103.439789,81.986389 99.372162,81.986389 94.893120,81.986389 
	C94.893120,84.266953 94.891708,86.058655 94.893738,87.850357 
	C94.894684,88.679657 94.560410,89.852646 94.977371,90.267479 
	C95.875412,91.160950 97.161392,91.664482 98.288612,92.327591 
z"/>
<path fill="#999999" opacity="1.000000" stroke="none" 
	d="
M84.752808,136.873398 
	C87.903496,136.317215 91.036209,136.163101 94.756706,135.980072 
	C94.756706,126.060059 94.756706,116.202850 94.756706,105.692635 
	C97.747955,105.692635 100.205719,105.444992 102.594063,105.746735 
	C106.910454,106.292053 108.269562,104.403999 107.713654,100.402565 
	C107.555565,99.264565 107.706299,98.083649 107.822426,96.488724 
	C108.404686,96.074196 108.879936,96.093361 109.792725,96.335388 
	C110.381065,96.745819 110.569824,96.879974 110.796555,96.960724 
	C110.796555,100.747276 110.796555,104.533836 110.796555,109.017975 
	C107.875648,109.017975 105.101501,109.193550 102.359268,108.972778 
	C99.055672,108.706818 98.007790,110.044647 98.066795,113.264282 
	C98.224617,121.876587 98.120567,130.493683 98.120567,139.867401 
	C94.157509,139.867401 90.559776,140.023117 86.995018,139.749390 
	C86.183090,139.687027 85.485199,138.139450 84.752808,136.873398 
z"/>
<path fill="#979797" opacity="1.000000" stroke="none" 
	d="
M98.247772,91.944679 
	C97.161392,91.664482 95.875412,91.160950 94.977371,90.267479 
	C94.560410,89.852646 94.894684,88.679657 94.893738,87.850357 
	C94.891708,86.058655 94.893120,84.266953 94.893120,81.986389 
	C99.372162,81.986389 103.439789,81.986389 108.164948,81.986389 
	C108.164948,78.591515 108.164948,75.671257 108.243118,72.286507 
	C109.499168,72.792213 111.531830,73.639236 111.692741,74.755974 
	C112.153473,77.953392 111.854935,81.260216 111.854935,85.126015 
	C108.913048,85.126015 106.484116,85.230148 104.067245,85.103783 
	C99.402260,84.859879 97.233742,86.752449 98.247772,91.944679 
z"/>
<path fill="#0C0C0C" opacity="1.000000" stroke="none" 
	d="
M117.483803,129.274933 
	C122.002480,133.208694 121.864342,137.916855 117.387383,138.941925 
	C115.752052,139.316345 113.173965,138.717834 112.109863,137.563782 
	C111.031799,136.394592 110.388947,133.254288 111.171677,132.292130 
	C112.478897,130.685242 115.072632,130.124954 117.483803,129.274933 
z"/>
<path fill="#979797" opacity="1.000000" stroke="none" 
	d="
M110.793015,96.745453 
	C110.569824,96.879974 110.381065,96.745819 110.142235,96.407112 
	C110.381371,96.127419 110.626465,96.218826 110.793015,96.745453 
z"/>
</svg>