<svg xmlns="http://www.w3.org/2000/svg" width="45" height="45" fill="none"><circle cx="22.5" cy="22.5" r="22.5" fill="#9d74d3"/><path d="M17.744 23.587h1.973v8.123a.29.29 0 0 0 .29.29h3.345a.29.29 0 0 0 .29-.29v-8.085h2.268a.29.29 0 0 0 .288-.257l.345-2.99a.29.29 0 0 0-.288-.324h-2.613v-1.874c0-.565.304-.852.904-.852h1.708a.29.29 0 0 0 .29-.29v-2.745a.29.29 0 0 0-.29-.29h-2.354L23.794 14c-.409 0-1.828.08-2.95 1.112-1.243 1.143-1.07 2.512-1.029 2.75v2.192h-2.071a.29.29 0 0 0-.29.29v2.952a.29.29 0 0 0 .29.29z" fill="#fff"/></svg>