<svg xmlns="http://www.w3.org/2000/svg" width="45" height="45" fill="none"><circle cx="22.5" cy="22.5" r="22.5" fill="#9d74d3"/><path d="M18.22 14h7.56c2.88 0 5.22 2.34 5.22 5.22v7.56A5.22 5.22 0 0 1 25.78 32h-7.56C15.34 32 13 29.66 13 26.78v-7.56A5.22 5.22 0 0 1 18.22 14zm-.18 1.8a3.24 3.24 0 0 0-3.24 3.24v7.92a3.24 3.24 0 0 0 3.24 3.24h7.92a3.24 3.24 0 0 0 3.24-3.24v-7.92a3.24 3.24 0 0 0-3.24-3.24h-7.92zm8.685 1.35c.298 0 .584.119.795.33s.33.497.33.795-.119.585-.33.796-.497.329-.795.329-.585-.118-.796-.329-.329-.497-.329-.796.118-.584.329-.795.497-.33.796-.33zM22 18.5a4.5 4.5 0 0 1 4.5 4.5 4.5 4.5 0 0 1-4.5 4.5 4.5 4.5 0 0 1-4.5-4.5 4.5 4.5 0 0 1 4.5-4.5zm0 1.8a2.7 2.7 0 0 0-2.7 2.7 2.7 2.7 0 0 0 2.7 2.7 2.7 2.7 0 0 0 2.7-2.7 2.7 2.7 0 0 0-2.7-2.7z" fill="#fff"/></svg>