<svg xmlns="http://www.w3.org/2000/svg" width="45" height="45" fill="none"><circle cx="22.5" cy="22.5" r="22.5" fill="#9d74d3"/><path d="M17.172 19.746h-3.598a.29.29 0 0 0-.289.289v11.559a.29.29 0 0 0 .289.289h3.598a.29.29 0 0 0 .289-.289V20.035a.29.29 0 0 0-.289-.289zM15.374 14C14.065 14 13 15.064 13 16.372s1.065 2.373 2.374 2.373 2.372-1.064 2.372-2.373S16.682 14 15.374 14zm11.98 5.576c-1.445 0-2.513.621-3.161 1.327v-.751a.29.29 0 0 0-.289-.289h-3.446a.29.29 0 0 0-.289.289v11.559a.29.29 0 0 0 .289.289h3.59a.29.29 0 0 0 .289-.289v-5.719c0-1.927.523-2.678 1.867-2.678 1.463 0 1.579 1.204 1.579 2.777v5.62a.29.29 0 0 0 .289.289h3.591a.29.29 0 0 0 .289-.289v-6.34c0-2.865-.546-5.795-4.599-5.795z" fill="#fff"/></svg>