<svg xmlns="http://www.w3.org/2000/svg" width="45" height="45" fill="none"><circle cx="22.5" cy="22.5" r="22.5" fill="#9d74d3"/><path d="M12.047 14.011c-.008.012.627.878 1.408 1.922l3.686 4.929 2.267 3.031-.145.165-3.702 4L12 31.933c-.008.02.333.035.824.031l.835-.004.274-.302 3.157-3.412 2.98-3.227.098-.114.784 1.051 2.639 3.533 1.859 2.479h2.843l2.823-.051c-.012-.031-.733-1.004-1.604-2.169l-2.212-2.957-2.282-3.051-1.655-2.243c0-.027 4.808-5.247 6.443-6.992l.467-.498h-.859l-.855.004-1 1.082-2.992 3.235-1.988 2.149-2.412-3.224-2.416-3.227-2.843-.02c-1.565-.012-2.855-.008-2.863.004zm6.737 3.474l3.188 4.267 4.063 5.431 2.6 3.482c.024.035-.255.047-1.271.047h-1.298l-2.573-3.443-8.969-12c-.024-.035.243-.047 1.267-.047h1.298l1.694 2.263z" fill="#fff"/></svg>