<svg xmlns="http://www.w3.org/2000/svg" width="52" height="52" fill="#9d74d3"  ><path d="M45.905 41.844c3.169-2.275 5.281-5.688 5.281-9.587 0-6.988-6.744-12.756-15.194-12.756S20.88 25.188 20.88 32.175 27.624 44.85 35.993 44.85a19.72 19.72 0 0 0 4.956-.65c.081-.081.244-.081.487-.081a1.57 1.57 0 0 1 .813.244l3.331 1.95c.081.081.081.081.244.081.244 0 .487-.244.487-.488 0-.081-.081-.244-.081-.325s-.488-1.625-.569-2.6v-.325c-.163-.325 0-.65.244-.812zm-14.95-11.538a2.01 2.01 0 0 1-2.031-2.031 2.01 2.01 0 0 1 2.031-2.031 2.01 2.01 0 0 1 2.031 2.031 2.01 2.01 0 0 1-2.031 2.031zm10.075 0a2.01 2.01 0 0 1-2.031-2.031 2.032 2.032 0 1 1 4.063 0c0 1.138-.812 2.031-2.031 2.031zm-5.036-11.781h1.056c-1.462-7.231-9.019-12.837-18.037-12.837-9.994.081-18.2 6.825-18.2 15.194 0 4.713 2.438 8.694 6.338 11.456.325.244.487.569.487 1.056 0 .081-.081.244-.081.325-.325 1.137-.812 3.006-.812 3.087-.244.163-.244.244-.244.488 0 .325.244.569.65.569.081 0 .244-.081.325-.081l3.981-2.275c.244-.081.65-.244 1.056-.244.081 0 .325.081.569.081 1.869.569 3.9.812 5.931.812h1.056c-.325-1.137-.569-2.437-.569-3.656 0-7.962 7.313-13.975 16.494-13.975zm-10.887-4.956c1.381 0 2.438 1.138 2.438 2.438s-1.138 2.438-2.438 2.438-2.437-1.137-2.437-2.437 1.056-2.437 2.438-2.437zm-12.188 4.956c-1.381 0-2.437-1.137-2.437-2.437s1.138-2.437 2.438-2.437 2.438 1.137 2.438 2.437-1.056 2.438-2.437 2.438z"/></svg>