<svg xmlns="http://www.w3.org/2000/svg" width="52" height="52" fill="none"  ><path d="M48.75 44.85h-4.388V28.844a4.63 4.63 0 0 0-4.631-4.631h-4.712a4.63 4.63 0 0 0-4.631 4.631V44.85h-4.875V16.575a4.63 4.63 0 0 0-4.631-4.631h-4.712a4.63 4.63 0 0 0-4.631 4.631V44.85H5.119V5.281c0-.975-.812-1.869-1.869-1.869s-1.869.813-1.869 1.869v39.731c0 1.869 1.544 3.494 3.494 3.494H48.75c.975 0 1.869-.812 1.869-1.869s-.894-1.788-1.869-1.788zm-33.556 0V16.575a.99.99 0 0 1 .975-.975h4.712a.99.99 0 0 1 .975.975V44.85h-6.663zm18.85 0V28.844a.99.99 0 0 1 .975-.975h4.712a.99.99 0 0 1 .975.975V44.85h-6.663z" fill="#9d74d3"/></svg>