<svg xmlns="http://www.w3.org/2000/svg" width="43" height="43" fill="none"  ><path d="M38.305.266h-5.695c-2.25 0-4.149 1.688-4.359 3.867L11.094 5.82H4.695C2.305 5.82.336 7.719.336 10.039v11.602c0 1.617.984 3.094 2.391 3.797l2.461 13.57c.492 2.18 2.531 3.797 4.852 3.797a5.21 5.21 0 0 0 4.008-1.898c.844-1.055 1.195-2.391.914-3.656l-1.898-10.969 15.117 2.953c.141 2.32 2.039 4.148 4.359 4.148h5.695a4.46 4.46 0 0 0 4.43-4.43V4.625c0-2.391-1.969-4.359-4.359-4.359zM12.781 8.844L28.18 7.297V26l-15.398-3.023V8.844zM3.5 10.039c0-.492.492-1.055 1.195-1.055h4.922v13.711H4.695c-.633 0-1.195-.492-1.195-1.055V10.039zm8.086 28.898c-.351.422-.914.703-1.547.703-.844 0-1.617-.562-1.758-1.195l-2.25-12.586h3.727l2.039 11.953v.07c.141.492-.07.844-.211 1.055zM39.5 28.953a1.26 1.26 0 0 1-1.266 1.266h-5.695a1.26 1.26 0 0 1-1.266-1.266V4.625a1.26 1.26 0 0 1 1.266-1.266h5.695A1.26 1.26 0 0 1 39.5 4.625v24.328z" fill="#9d74d3"/></svg>