<svg xmlns="http://www.w3.org/2000/svg" width="52" height="52" fill="none"  ><path d="M50.537 9.669a2.52 2.52 0 0 0-.731-1.787l-2.844-2.925-2.6-2.6c-.406-.487-.894-.812-1.544-.894-.731-.081-1.381.081-1.95.569l-5.525 5.525H6.581c-2.762 0-5.119 2.275-5.119 5.119V45.5c0 2.762 2.275 5.119 5.119 5.119h32.906c2.762 0 5.119-2.275 5.119-5.119V16.656l5.281-5.281c.406-.487.65-1.056.65-1.706zM26.65 29.25c-.081.081-.081.081-.162.081l-5.85 1.95 1.95-5.85c0-.081.081-.081.081-.163l14.625-14.625 4.063 3.981L26.65 29.25zM40.869 45.5c0 .813-.65 1.462-1.462 1.462H6.581c-.812 0-1.463-.65-1.463-1.462V12.594c0-.812.65-1.463 1.463-1.463h25.025L20.069 22.75c-.406.406-.812.975-.975 1.625l-3.006 9.1c-.244.65-.081 1.219.244 1.788.244.325.731.813 1.625.813h.325l9.344-3.087c.569-.163 1.137-.569 1.544-.975l11.7-11.7V45.5zm3.006-33.394l-4.062-3.981 2.519-2.519 3.981 4.063-2.437 2.437z" fill="#9d74d3"/></svg>