<svg xmlns="http://www.w3.org/2000/svg" width="52" height="52" fill="#9d74d3"  ><path d="M30.144 38.837c-3.25 0-5.85 2.6-5.85 5.85s2.6 5.85 5.85 5.85 5.85-2.6 5.85-5.85c0-3.169-2.681-5.85-5.85-5.85zm0 8.125c-1.219 0-2.194-.975-2.194-2.194s.975-2.194 2.194-2.194 2.194.975 2.194 2.194c0 1.137-1.056 2.194-2.194 2.194zm-15.438-8.125c-3.25 0-5.85 2.6-5.85 5.85s2.6 5.85 5.85 5.85 5.85-2.6 5.85-5.85c0-3.169-2.681-5.85-5.85-5.85zm0 8.125c-1.219 0-2.194-.975-2.194-2.194s.975-2.194 2.194-2.194 2.194.975 2.194 2.194c0 1.137-.975 2.194-2.194 2.194zm32.582-45.5H42.9c-1.95 0-3.656 1.463-3.9 3.413l-1.3 9.344h-3.413V8.287c-.081-1.462-1.219-2.6-2.6-2.6h-6.012c-.244-1.219-1.3-2.113-2.519-2.113h-7.069c-1.381 0-2.6 1.219-2.6 2.762V7.88H7.556c-1.381 0-2.6 1.137-2.6 2.438V14.3a2.82 2.82 0 0 0-1.544.975c-.488.65-.731 1.544-.488 2.356v.163l5.038 15.194c.325 1.137 1.381 1.95 2.6 1.95h22.425c3.006 0 5.606-2.275 6.013-5.281l3.413-24.294c0-.162.163-.244.325-.244h4.388c.975 0 1.869-.812 1.869-1.869s-.731-1.787-1.706-1.787zM30.55 14.219h-4.875V9.344h4.875v4.875zM17.225 7.231H22.1v1.056 5.931h-4.875V10.4 7.231zm-8.531 4.225h4.875v2.762H8.694v-2.762zm26.813 17.631c-.163 1.219-1.219 2.113-2.437 2.113H11.294L6.906 17.875h30.225l-1.625 11.212z"/></svg>