<svg width="52" height="52" viewBox="0 0 52 52" fill="none" xmlns="http://www.w3.org/2000/svg">
<path d="M43.3335 4.3335V8.66683L8.66683 17.3335V13.0002H4.3335V39.0002H8.66683V34.6668L13.0002 35.7502V40.0835C13.0002 44.2002 16.4668 47.6668 20.5835 47.6668C24.7002 47.6668 28.1668 44.2002 28.1668 40.0835V39.6502L43.3335 43.3335V47.6668H47.6668V4.3335H43.3335ZM23.8335 40.0835C23.8335 41.8168 22.3168 43.3335 20.5835 43.3335C18.8502 43.3335 17.3335 41.8168 17.3335 40.0835V36.8335L23.8335 38.5668V40.0835ZM43.3335 39.0002L8.66683 30.3335V21.6668L43.3335 13.0002V39.0002Z" fill="#9D74D3"/>
</svg>
