<svg xmlns="http://www.w3.org/2000/svg" width="52" height="52" fill="#9d74d3"  ><path d="M49.075 40.869l-9.506-9.425c-.975-.975-2.275-1.544-3.656-1.544-.975 0-1.869.244-2.681.731l-4.225-4.225a15.43 15.43 0 0 0 3.331-9.588c0-4.144-1.625-8.044-4.55-10.969S20.962 1.3 16.819 1.3A15.43 15.43 0 0 0 5.85 5.85C2.925 8.775 1.3 12.675 1.3 16.819s1.625 8.044 4.55 10.969 6.825 4.55 10.969 4.55c3.494 0 6.825-1.137 9.587-3.331l4.225 4.225a5.11 5.11 0 0 0-.731 2.681c0 1.381.569 2.681 1.544 3.656l9.425 9.425c.975.975 2.275 1.544 3.656 1.544s2.681-.569 3.656-1.544l.894-.894c.975-.975 1.544-2.275 1.544-3.656 0-1.3-.569-2.6-1.544-3.575zm-40.544-15.6c-2.194-2.194-3.494-5.2-3.494-8.369s1.219-6.094 3.494-8.369 5.2-3.494 8.369-3.494 6.094 1.219 8.369 3.494 3.494 5.2 3.494 8.369-1.219 6.094-3.494 8.369-5.2 3.494-8.369 3.494-6.094-1.3-8.369-3.494zm37.944 20.313l-.894.894c-.569.569-1.544.569-2.194 0l-9.425-9.425c-.569-.569-.569-1.544 0-2.194l.894-.894c.325-.325.65-.406 1.056-.406s.813.163 1.056.406l9.425 9.425c.325.325.406.65.406 1.056.163.487 0 .894-.325 1.137zM20.069 10.319c-.731.731-.731 1.869 0 2.6 1.95 1.95 1.95 5.2 0 7.15-.731.731-.731 1.869 0 2.6.325.325.813.569 1.3.569s.975-.163 1.3-.569c1.625-1.625 2.519-3.819 2.519-6.175s-.894-4.469-2.519-6.175c-.731-.731-1.95-.731-2.6 0z"/></svg>