<svg xmlns="http://www.w3.org/2000/svg" width="52" height="52" fill="none"  ><path d="M8.667 8.667h6.5L19.5 4.334h13l4.333 4.333h6.5c1.149 0 2.252.457 3.064 1.269s1.269 1.915 1.269 3.064v26c0 1.149-.457 2.251-1.269 3.064s-1.915 1.269-3.064 1.269H8.667c-1.149 0-2.251-.457-3.064-1.269S4.334 40.149 4.334 39V13c0-1.149.457-2.251 1.269-3.064s1.915-1.269 3.064-1.269zM26 15.167c-2.873 0-5.629 1.141-7.66 3.173s-3.173 4.787-3.173 7.66 1.141 5.629 3.173 7.66 4.787 3.173 7.66 3.173 5.629-1.141 7.66-3.173 3.173-4.787 3.173-7.66-1.141-5.629-3.173-7.66-4.787-3.173-7.66-3.173zm0 4.333a6.5 6.5 0 0 1 6.5 6.5 6.5 6.5 0 0 1-6.5 6.5 6.5 6.5 0 0 1-6.5-6.5 6.5 6.5 0 0 1 6.5-6.5z" fill="#9d74d3"/></svg>