<svg xmlns="http://www.w3.org/2000/svg" width="52" height="42" fill="#9d74d3"  ><path d="M46.313.363H5.688C2.925.363.569 2.638.569 5.481v21.45c0 2.762 2.275 5.119 5.119 5.119h18.525v6.013h-8.937c-.975 0-1.869.813-1.869 1.869s.813 1.869 1.869 1.869h21.45c.975 0 1.869-.812 1.869-1.869s-.812-1.869-1.869-1.869H27.87V32.05h18.444c2.762 0 5.119-2.275 5.119-5.119V5.4c0-2.762-2.356-5.038-5.119-5.038zm1.462 26.487c0 .813-.65 1.462-1.462 1.462H5.688c-.812 0-1.462-.65-1.462-1.462V5.4c0-.812.65-1.463 1.462-1.463h40.625c.813 0 1.462.65 1.462 1.463v21.45zM13.081 11.575h3.25c.975 0 1.869-.812 1.869-1.869s-.812-1.869-1.869-1.869h-3.25c-2.763 0-5.038 2.275-5.038 5.037s2.275 5.038 5.038 5.038c.731 0 1.381.65 1.381 1.381s-.65 1.381-1.381 1.381h-3.25c-.975 0-1.869.813-1.869 1.869 0 .975.813 1.869 1.869 1.869h3.25c2.762 0 5.038-2.275 5.038-5.038s-2.275-5.037-5.037-5.037c-.731 0-1.381-.65-1.381-1.381s.65-1.381 1.381-1.381zm12.838 0h3.25c.975 0 1.869-.812 1.869-1.869s-.812-1.869-1.869-1.869h-3.25c-2.762 0-5.038 2.275-5.038 5.037v6.5c0 2.762 2.275 5.038 5.038 5.038h3.25c.975 0 1.869-.812 1.869-1.869 0-.975-.812-1.869-1.869-1.869h-3.25c-.731 0-1.381-.65-1.381-1.381v-1.381h4.631c.975 0 1.869-.812 1.869-1.869s-.812-1.869-1.869-1.869h-4.631v-1.381c0-.65.65-1.219 1.381-1.219zm13.812-3.656h-1.869c-2.275 0-4.144 1.869-4.144 4.144v8.288c0 2.275 1.869 4.144 4.144 4.144h1.869c2.275 0 4.144-1.869 4.144-4.144v-8.369c-.081-2.275-1.869-4.062-4.144-4.062zm.406 12.35c0 .244-.244.488-.488.488H37.78c-.244 0-.487-.244-.487-.488v-8.287c0-.244.244-.487.487-.487h1.869c.244 0 .488.244.488.487v8.288z"/></svg>