<svg xmlns="http://www.w3.org/2000/svg" width="52" height="52" fill="none"  ><path d="M26 11.917c2.011 0 3.94.799 5.362 2.221s2.221 3.351 2.221 5.362-.799 3.94-2.221 5.362-3.351 2.221-5.362 2.221-3.94-.799-5.362-2.221-2.221-3.351-2.221-5.362.799-3.94 2.221-5.362 3.351-2.221 5.362-2.221zm-15.167 5.417c1.213 0 2.34.325 3.315.91-.325 3.098.585 6.175 2.448 8.58-1.083 2.08-3.25 3.51-5.763 3.51a6.5 6.5 0 0 1-6.5-6.5 6.5 6.5 0 0 1 6.5-6.5zm30.333 0a6.5 6.5 0 0 1 6.5 6.5 6.5 6.5 0 0 1-6.5 6.5c-2.513 0-4.68-1.43-5.763-3.51 1.863-2.405 2.773-5.482 2.448-8.58.975-.585 2.102-.91 3.315-.91zm-29.25 22.208c0-4.485 6.305-8.125 14.083-8.125s14.083 3.64 14.083 8.125v3.792H11.917v-3.792zM0 43.333v-3.25c0-3.012 4.095-5.547 9.642-6.283-1.278 1.473-2.058 3.51-2.058 5.742v3.792H0zm52 0h-7.583v-3.792c0-2.232-.78-4.268-2.058-5.742 5.547.737 9.642 3.272 9.642 6.283v3.25z" fill="#9d74d3"/></svg>