<svg xmlns="http://www.w3.org/2000/svg" width="52" height="52" fill="none"  ><g clip-path="url(#A)" fill="#9d74d3"><path d="M51.106 15.6c-.081-2.6-.569-4.469-1.137-6.175s-1.463-3.088-2.844-4.469-2.763-2.194-4.388-2.844-3.412-1.056-6.175-1.137C33.719.813 32.906.813 26 .813L15.6.894c-2.762.081-4.469.569-6.175 1.138S6.338 3.575 4.956 4.956 2.681 7.719 2.113 9.425C1.463 11.05 1.056 12.838.975 15.6S.813 19.094.813 26l.081 10.4c.081 2.763.569 4.469 1.138 6.175s1.463 3.087 2.844 4.469 2.844 2.275 4.469 2.844a19.01 19.01 0 0 0 6.175 1.137c2.762.163 3.494.163 10.4.163l10.4-.081c2.762-.081 4.469-.569 6.175-1.137s3.088-1.463 4.469-2.844 2.275-2.844 2.844-4.469 1.056-3.412 1.138-6.175c.081-2.6.081-3.412.081-10.319l.081-10.563zm-4.55 20.556c-.081 2.438-.569 3.738-.894 4.712-.488 1.138-1.056 2.031-1.95 2.844-.894.894-1.706 1.381-2.844 1.95-.894.325-2.194.813-4.712.894H26.081c-6.662 0-7.556 0-10.156-.081-2.437-.081-3.738-.569-4.712-.894-1.138-.487-2.031-1.056-2.844-1.95-.894-.894-1.381-1.706-1.95-2.844-.325-.894-.812-2.194-.894-4.712V26l.081-10.156c.081-2.438.569-3.738.894-4.713.487-1.137 1.056-2.031 1.869-2.844.894-.894 1.706-1.381 2.844-1.869.894-.325 2.194-.812 4.713-.894 2.6-.081 3.412-.081 10.156-.081l10.156.081c2.438.081 3.738.569 4.713.894 1.137.487 2.031 1.056 2.844 1.869.894.894 1.381 1.706 1.95 2.844.325.894.813 2.194.894 4.713.081 2.6.081 3.412.081 10.156s-.081 7.556-.163 10.156zM26.001 13.081c-7.231 0-12.919 5.85-12.919 12.919 0 7.231 5.85 12.919 12.919 12.919s13-5.687 13-12.919-5.769-12.919-13-12.919zm0 21.369c-4.713 0-8.45-3.819-8.45-8.45a8.5 8.5 0 0 1 8.45-8.45 8.39 8.39 0 0 1 8.45 8.45 8.39 8.39 0 0 1-8.45 8.45zm13.568-18.931c1.66 0 3.006-1.346 3.006-3.006s-1.346-3.006-3.006-3.006-3.006 1.346-3.006 3.006 1.346 3.006 3.006 3.006z"/></g><defs><clipPath id="A"><path fill="#fff" d="M0 0h52v52H0z"/></clipPath></defs></svg>