<?xml version="1.0" encoding="UTF-8"?>
<svg xmlns="http://www.w3.org/2000/svg" xmlns:xlink="http://www.w3.org/1999/xlink" width="0" height="0">
<symbol id="ai" width="52" height="52" fill="#9d74d3"  ><path d="M45.905 41.844c3.169-2.275 5.281-5.688 5.281-9.587 0-6.988-6.744-12.756-15.194-12.756S20.88 25.188 20.88 32.175 27.624 44.85 35.993 44.85a19.72 19.72 0 0 0 4.956-.65c.081-.081.244-.081.487-.081a1.57 1.57 0 0 1 .813.244l3.331 1.95c.081.081.081.081.244.081.244 0 .487-.244.487-.488 0-.081-.081-.244-.081-.325s-.488-1.625-.569-2.6v-.325c-.163-.325 0-.65.244-.812zm-14.95-11.538a2.01 2.01 0 0 1-2.031-2.031 2.01 2.01 0 0 1 2.031-2.031 2.01 2.01 0 0 1 2.031 2.031 2.01 2.01 0 0 1-2.031 2.031zm10.075 0a2.01 2.01 0 0 1-2.031-2.031 2.032 2.032 0 1 1 4.063 0c0 1.138-.812 2.031-2.031 2.031zm-5.036-11.781h1.056c-1.462-7.231-9.019-12.837-18.037-12.837-9.994.081-18.2 6.825-18.2 15.194 0 4.713 2.438 8.694 6.338 11.456.325.244.487.569.487 1.056 0 .081-.081.244-.081.325-.325 1.137-.812 3.006-.812 3.087-.244.163-.244.244-.244.488 0 .325.244.569.65.569.081 0 .244-.081.325-.081l3.981-2.275c.244-.081.65-.244 1.056-.244.081 0 .325.081.569.081 1.869.569 3.9.812 5.931.812h1.056c-.325-1.137-.569-2.437-.569-3.656 0-7.962 7.313-13.975 16.494-13.975zm-10.887-4.956c1.381 0 2.438 1.138 2.438 2.438s-1.138 2.438-2.438 2.438-2.437-1.137-2.437-2.437 1.056-2.437 2.438-2.437zm-12.188 4.956c-1.381 0-2.437-1.137-2.437-2.437s1.138-2.437 2.438-2.437 2.438 1.137 2.438 2.437-1.056 2.438-2.437 2.438z"/></symbol>
<symbol id="analytics" width="52" height="52" fill="none"  ><path d="M48.75 44.85h-4.388V28.844a4.63 4.63 0 0 0-4.631-4.631h-4.712a4.63 4.63 0 0 0-4.631 4.631V44.85h-4.875V16.575a4.63 4.63 0 0 0-4.631-4.631h-4.712a4.63 4.63 0 0 0-4.631 4.631V44.85H5.119V5.281c0-.975-.812-1.869-1.869-1.869s-1.869.813-1.869 1.869v39.731c0 1.869 1.544 3.494 3.494 3.494H48.75c.975 0 1.869-.812 1.869-1.869s-.894-1.788-1.869-1.788zm-33.556 0V16.575a.99.99 0 0 1 .975-.975h4.712a.99.99 0 0 1 .975.975V44.85h-6.663zm18.85 0V28.844a.99.99 0 0 1 .975-.975h4.712a.99.99 0 0 1 .975.975V44.85h-6.663z" fill="#9d74d3"/></symbol>
<symbol id="contentmarketing" width="43" height="43" fill="none"  ><path d="M38.305.266h-5.695c-2.25 0-4.149 1.688-4.359 3.867L11.094 5.82H4.695C2.305 5.82.336 7.719.336 10.039v11.602c0 1.617.984 3.094 2.391 3.797l2.461 13.57c.492 2.18 2.531 3.797 4.852 3.797a5.21 5.21 0 0 0 4.008-1.898c.844-1.055 1.195-2.391.914-3.656l-1.898-10.969 15.117 2.953c.141 2.32 2.039 4.148 4.359 4.148h5.695a4.46 4.46 0 0 0 4.43-4.43V4.625c0-2.391-1.969-4.359-4.359-4.359zM12.781 8.844L28.18 7.297V26l-15.398-3.023V8.844zM3.5 10.039c0-.492.492-1.055 1.195-1.055h4.922v13.711H4.695c-.633 0-1.195-.492-1.195-1.055V10.039zm8.086 28.898c-.351.422-.914.703-1.547.703-.844 0-1.617-.562-1.758-1.195l-2.25-12.586h3.727l2.039 11.953v.07c.141.492-.07.844-.211 1.055zM39.5 28.953a1.26 1.26 0 0 1-1.266 1.266h-5.695a1.26 1.26 0 0 1-1.266-1.266V4.625a1.26 1.26 0 0 1 1.266-1.266h5.695A1.26 1.26 0 0 1 39.5 4.625v24.328z" fill="#9d74d3"/></symbol>
<symbol id="copyrighting" width="52" height="52" fill="none"  ><path d="M50.537 9.669a2.52 2.52 0 0 0-.731-1.787l-2.844-2.925-2.6-2.6c-.406-.487-.894-.812-1.544-.894-.731-.081-1.381.081-1.95.569l-5.525 5.525H6.581c-2.762 0-5.119 2.275-5.119 5.119V45.5c0 2.762 2.275 5.119 5.119 5.119h32.906c2.762 0 5.119-2.275 5.119-5.119V16.656l5.281-5.281c.406-.487.65-1.056.65-1.706zM26.65 29.25c-.081.081-.081.081-.162.081l-5.85 1.95 1.95-5.85c0-.081.081-.081.081-.163l14.625-14.625 4.063 3.981L26.65 29.25zM40.869 45.5c0 .813-.65 1.462-1.462 1.462H6.581c-.812 0-1.463-.65-1.463-1.462V12.594c0-.812.65-1.463 1.463-1.463h25.025L20.069 22.75c-.406.406-.812.975-.975 1.625l-3.006 9.1c-.244.65-.081 1.219.244 1.788.244.325.731.813 1.625.813h.325l9.344-3.087c.569-.163 1.137-.569 1.544-.975l11.7-11.7V45.5zm3.006-33.394l-4.062-3.981 2.519-2.519 3.981 4.063-2.437 2.437z" fill="#9d74d3"/></symbol>
<symbol id="e-commerce" width="52" height="52" fill="#9d74d3"  ><path d="M30.144 38.837c-3.25 0-5.85 2.6-5.85 5.85s2.6 5.85 5.85 5.85 5.85-2.6 5.85-5.85c0-3.169-2.681-5.85-5.85-5.85zm0 8.125c-1.219 0-2.194-.975-2.194-2.194s.975-2.194 2.194-2.194 2.194.975 2.194 2.194c0 1.137-1.056 2.194-2.194 2.194zm-15.438-8.125c-3.25 0-5.85 2.6-5.85 5.85s2.6 5.85 5.85 5.85 5.85-2.6 5.85-5.85c0-3.169-2.681-5.85-5.85-5.85zm0 8.125c-1.219 0-2.194-.975-2.194-2.194s.975-2.194 2.194-2.194 2.194.975 2.194 2.194c0 1.137-.975 2.194-2.194 2.194zm32.582-45.5H42.9c-1.95 0-3.656 1.463-3.9 3.413l-1.3 9.344h-3.413V8.287c-.081-1.462-1.219-2.6-2.6-2.6h-6.012c-.244-1.219-1.3-2.113-2.519-2.113h-7.069c-1.381 0-2.6 1.219-2.6 2.762V7.88H7.556c-1.381 0-2.6 1.137-2.6 2.438V14.3a2.82 2.82 0 0 0-1.544.975c-.488.65-.731 1.544-.488 2.356v.163l5.038 15.194c.325 1.137 1.381 1.95 2.6 1.95h22.425c3.006 0 5.606-2.275 6.013-5.281l3.413-24.294c0-.162.163-.244.325-.244h4.388c.975 0 1.869-.812 1.869-1.869s-.731-1.787-1.706-1.787zM30.55 14.219h-4.875V9.344h4.875v4.875zM17.225 7.231H22.1v1.056 5.931h-4.875V10.4 7.231zm-8.531 4.225h4.875v2.762H8.694v-2.762zm26.813 17.631c-.163 1.219-1.219 2.113-2.437 2.113H11.294L6.906 17.875h30.225l-1.625 11.212z"/></symbol>
<symbol id="email" width="52" height="52" fill="none"  ><path d="M45.5 7.8h-39c-2.762 0-5.119 2.275-5.119 5.119v26.325c0 2.763 2.275 5.119 5.119 5.119h39c2.762 0 5.119-2.275 5.119-5.119V12.838c0-2.763-2.356-5.037-5.119-5.037zm0 3.656h.244L26 24.131 6.256 11.456H6.5h39zm0 29.088h-39c-.812 0-1.462-.65-1.462-1.462v-24.05L24.05 27.219c.569.406 1.219.569 1.869.569s1.3-.163 1.869-.569L46.8 15.031v24.131c.163.813-.487 1.381-1.3 1.381z" fill="#9d74d3"/></symbol>
<symbol id="influencer" width="52" height="52" fill="none"  ><path d="M43.334 4.334v4.333L8.667 17.334V13H4.334v26h4.333v-4.333L13 35.75v4.333c0 4.117 3.467 7.583 7.583 7.583s7.583-3.467 7.583-7.583v-.433l15.167 3.683v4.333h4.333V4.334h-4.333zm-19.5 35.75c0 1.733-1.517 3.25-3.25 3.25s-3.25-1.517-3.25-3.25v-3.25l6.5 1.733v1.517zM43.334 39L8.667 30.334v-8.667L43.334 13v26z" fill="#9d74d3"/></symbol>
<symbol id="local-seo" width="52" height="52" fill="#9d74d3"  ><path d="M49.075 40.869l-9.506-9.425c-.975-.975-2.275-1.544-3.656-1.544-.975 0-1.869.244-2.681.731l-4.225-4.225a15.43 15.43 0 0 0 3.331-9.588c0-4.144-1.625-8.044-4.55-10.969S20.962 1.3 16.819 1.3A15.43 15.43 0 0 0 5.85 5.85C2.925 8.775 1.3 12.675 1.3 16.819s1.625 8.044 4.55 10.969 6.825 4.55 10.969 4.55c3.494 0 6.825-1.137 9.587-3.331l4.225 4.225a5.11 5.11 0 0 0-.731 2.681c0 1.381.569 2.681 1.544 3.656l9.425 9.425c.975.975 2.275 1.544 3.656 1.544s2.681-.569 3.656-1.544l.894-.894c.975-.975 1.544-2.275 1.544-3.656 0-1.3-.569-2.6-1.544-3.575zm-40.544-15.6c-2.194-2.194-3.494-5.2-3.494-8.369s1.219-6.094 3.494-8.369 5.2-3.494 8.369-3.494 6.094 1.219 8.369 3.494 3.494 5.2 3.494 8.369-1.219 6.094-3.494 8.369-5.2 3.494-8.369 3.494-6.094-1.3-8.369-3.494zm37.944 20.313l-.894.894c-.569.569-1.544.569-2.194 0l-9.425-9.425c-.569-.569-.569-1.544 0-2.194l.894-.894c.325-.325.65-.406 1.056-.406s.813.163 1.056.406l9.425 9.425c.325.325.406.65.406 1.056.163.487 0 .894-.325 1.137zM20.069 10.319c-.731.731-.731 1.869 0 2.6 1.95 1.95 1.95 5.2 0 7.15-.731.731-.731 1.869 0 2.6.325.325.813.569 1.3.569s.975-.163 1.3-.569c1.625-1.625 2.519-3.819 2.519-6.175s-.894-4.469-2.519-6.175c-.731-.731-1.95-.731-2.6 0z"/></symbol>
<symbol id="photography" width="52" height="52" fill="none"  ><path d="M8.667 8.667h6.5L19.5 4.334h13l4.333 4.333h6.5c1.149 0 2.252.457 3.064 1.269s1.269 1.915 1.269 3.064v26c0 1.149-.457 2.251-1.269 3.064s-1.915 1.269-3.064 1.269H8.667c-1.149 0-2.251-.457-3.064-1.269S4.334 40.149 4.334 39V13c0-1.149.457-2.251 1.269-3.064s1.915-1.269 3.064-1.269zM26 15.167c-2.873 0-5.629 1.141-7.66 3.173s-3.173 4.787-3.173 7.66 1.141 5.629 3.173 7.66 4.787 3.173 7.66 3.173 5.629-1.141 7.66-3.173 3.173-4.787 3.173-7.66-1.141-5.629-3.173-7.66-4.787-3.173-7.66-3.173zm0 4.333a6.5 6.5 0 0 1 6.5 6.5 6.5 6.5 0 0 1-6.5 6.5 6.5 6.5 0 0 1-6.5-6.5 6.5 6.5 0 0 1 6.5-6.5z" fill="#9d74d3"/></symbol>
<symbol id="seo" width="52" height="42" fill="#9d74d3"  ><path d="M46.313.363H5.688C2.925.363.569 2.638.569 5.481v21.45c0 2.762 2.275 5.119 5.119 5.119h18.525v6.013h-8.937c-.975 0-1.869.813-1.869 1.869s.813 1.869 1.869 1.869h21.45c.975 0 1.869-.812 1.869-1.869s-.812-1.869-1.869-1.869H27.87V32.05h18.444c2.762 0 5.119-2.275 5.119-5.119V5.4c0-2.762-2.356-5.038-5.119-5.038zm1.462 26.487c0 .813-.65 1.462-1.462 1.462H5.688c-.812 0-1.462-.65-1.462-1.462V5.4c0-.812.65-1.463 1.462-1.463h40.625c.813 0 1.462.65 1.462 1.463v21.45zM13.081 11.575h3.25c.975 0 1.869-.812 1.869-1.869s-.812-1.869-1.869-1.869h-3.25c-2.763 0-5.038 2.275-5.038 5.037s2.275 5.038 5.038 5.038c.731 0 1.381.65 1.381 1.381s-.65 1.381-1.381 1.381h-3.25c-.975 0-1.869.813-1.869 1.869 0 .975.813 1.869 1.869 1.869h3.25c2.762 0 5.038-2.275 5.038-5.038s-2.275-5.037-5.037-5.037c-.731 0-1.381-.65-1.381-1.381s.65-1.381 1.381-1.381zm12.838 0h3.25c.975 0 1.869-.812 1.869-1.869s-.812-1.869-1.869-1.869h-3.25c-2.762 0-5.038 2.275-5.038 5.037v6.5c0 2.762 2.275 5.038 5.038 5.038h3.25c.975 0 1.869-.812 1.869-1.869 0-.975-.812-1.869-1.869-1.869h-3.25c-.731 0-1.381-.65-1.381-1.381v-1.381h4.631c.975 0 1.869-.812 1.869-1.869s-.812-1.869-1.869-1.869h-4.631v-1.381c0-.65.65-1.219 1.381-1.219zm13.812-3.656h-1.869c-2.275 0-4.144 1.869-4.144 4.144v8.288c0 2.275 1.869 4.144 4.144 4.144h1.869c2.275 0 4.144-1.869 4.144-4.144v-8.369c-.081-2.275-1.869-4.062-4.144-4.062zm.406 12.35c0 .244-.244.488-.488.488H37.78c-.244 0-.487-.244-.487-.488v-8.287c0-.244.244-.487.487-.487h1.869c.244 0 .488.244.488.487v8.288z"/></symbol>
<symbol id="social-commerce" width="52" height="52" fill="none"  ><path d="M26 11.917c2.011 0 3.94.799 5.362 2.221s2.221 3.351 2.221 5.362-.799 3.94-2.221 5.362-3.351 2.221-5.362 2.221-3.94-.799-5.362-2.221-2.221-3.351-2.221-5.362.799-3.94 2.221-5.362 3.351-2.221 5.362-2.221zm-15.167 5.417c1.213 0 2.34.325 3.315.91-.325 3.098.585 6.175 2.448 8.58-1.083 2.08-3.25 3.51-5.763 3.51a6.5 6.5 0 0 1-6.5-6.5 6.5 6.5 0 0 1 6.5-6.5zm30.333 0a6.5 6.5 0 0 1 6.5 6.5 6.5 6.5 0 0 1-6.5 6.5c-2.513 0-4.68-1.43-5.763-3.51 1.863-2.405 2.773-5.482 2.448-8.58.975-.585 2.102-.91 3.315-.91zm-29.25 22.208c0-4.485 6.305-8.125 14.083-8.125s14.083 3.64 14.083 8.125v3.792H11.917v-3.792zM0 43.333v-3.25c0-3.012 4.095-5.547 9.642-6.283-1.278 1.473-2.058 3.51-2.058 5.742v3.792H0zm52 0h-7.583v-3.792c0-2.232-.78-4.268-2.058-5.742 5.547.737 9.642 3.272 9.642 6.283v3.25z" fill="#9d74d3"/></symbol>
<symbol id="social-media" width="52" height="52" fill="none"  ><g clip-path="url(#A)" fill="#9d74d3"><path d="M51.106 15.6c-.081-2.6-.569-4.469-1.137-6.175s-1.463-3.088-2.844-4.469-2.763-2.194-4.388-2.844-3.412-1.056-6.175-1.137C33.719.813 32.906.813 26 .813L15.6.894c-2.762.081-4.469.569-6.175 1.138S6.338 3.575 4.956 4.956 2.681 7.719 2.113 9.425C1.463 11.05 1.056 12.838.975 15.6S.813 19.094.813 26l.081 10.4c.081 2.763.569 4.469 1.138 6.175s1.463 3.087 2.844 4.469 2.844 2.275 4.469 2.844a19.01 19.01 0 0 0 6.175 1.137c2.762.163 3.494.163 10.4.163l10.4-.081c2.762-.081 4.469-.569 6.175-1.137s3.088-1.463 4.469-2.844 2.275-2.844 2.844-4.469 1.056-3.412 1.138-6.175c.081-2.6.081-3.412.081-10.319l.081-10.563zm-4.55 20.556c-.081 2.438-.569 3.738-.894 4.712-.488 1.138-1.056 2.031-1.95 2.844-.894.894-1.706 1.381-2.844 1.95-.894.325-2.194.813-4.712.894H26.081c-6.662 0-7.556 0-10.156-.081-2.437-.081-3.738-.569-4.712-.894-1.138-.487-2.031-1.056-2.844-1.95-.894-.894-1.381-1.706-1.95-2.844-.325-.894-.812-2.194-.894-4.712V26l.081-10.156c.081-2.438.569-3.738.894-4.713.487-1.137 1.056-2.031 1.869-2.844.894-.894 1.706-1.381 2.844-1.869.894-.325 2.194-.812 4.713-.894 2.6-.081 3.412-.081 10.156-.081l10.156.081c2.438.081 3.738.569 4.713.894 1.137.487 2.031 1.056 2.844 1.869.894.894 1.381 1.706 1.95 2.844.325.894.813 2.194.894 4.713.081 2.6.081 3.412.081 10.156s-.081 7.556-.163 10.156zM26.001 13.081c-7.231 0-12.919 5.85-12.919 12.919 0 7.231 5.85 12.919 12.919 12.919s13-5.687 13-12.919-5.769-12.919-13-12.919zm0 21.369c-4.713 0-8.45-3.819-8.45-8.45a8.5 8.5 0 0 1 8.45-8.45 8.39 8.39 0 0 1 8.45 8.45 8.39 8.39 0 0 1-8.45 8.45zm13.568-18.931c1.66 0 3.006-1.346 3.006-3.006s-1.346-3.006-3.006-3.006-3.006 1.346-3.006 3.006 1.346 3.006 3.006 3.006z"/></g><defs><clipPath><path fill="#fff" d="M0 0h52v52H0z"/></clipPath></defs></symbol>

<symbol id="sprite" width="0" height="0">
<symbol width="52" height="52" fill="#9d74d3"  ><path d="M45.905 41.844c3.169-2.275 5.281-5.688 5.281-9.587 0-6.988-6.744-12.756-15.194-12.756S20.88 25.188 20.88 32.175 27.624 44.85 35.993 44.85a19.72 19.72 0 0 0 4.956-.65c.081-.081.244-.081.487-.081a1.57 1.57 0 0 1 .813.244l3.331 1.95c.081.081.081.081.244.081.244 0 .487-.244.487-.488 0-.081-.081-.244-.081-.325s-.488-1.625-.569-2.6v-.325c-.163-.325 0-.65.244-.812zm-14.95-11.538a2.01 2.01 0 0 1-2.031-2.031 2.01 2.01 0 0 1 2.031-2.031 2.01 2.01 0 0 1 2.031 2.031 2.01 2.01 0 0 1-2.031 2.031zm10.075 0a2.01 2.01 0 0 1-2.031-2.031 2.032 2.032 0 1 1 4.063 0c0 1.138-.812 2.031-2.031 2.031zm-5.036-11.781h1.056c-1.462-7.231-9.019-12.837-18.037-12.837-9.994.081-18.2 6.825-18.2 15.194 0 4.713 2.438 8.694 6.338 11.456.325.244.487.569.487 1.056 0 .081-.081.244-.081.325-.325 1.137-.812 3.006-.812 3.087-.244.163-.244.244-.244.488 0 .325.244.569.65.569.081 0 .244-.081.325-.081l3.981-2.275c.244-.081.65-.244 1.056-.244.081 0 .325.081.569.081 1.869.569 3.9.812 5.931.812h1.056c-.325-1.137-.569-2.437-.569-3.656 0-7.962 7.313-13.975 16.494-13.975zm-10.887-4.956c1.381 0 2.438 1.138 2.438 2.438s-1.138 2.438-2.438 2.438-2.437-1.137-2.437-2.437 1.056-2.437 2.438-2.437zm-12.188 4.956c-1.381 0-2.437-1.137-2.437-2.437s1.138-2.437 2.438-2.437 2.438 1.137 2.438 2.437-1.056 2.438-2.437 2.438z"/></symbol>
<symbol id="analytics" width="52" height="52" fill="none"  ><path d="M48.75 44.85h-4.388V28.844a4.63 4.63 0 0 0-4.631-4.631h-4.712a4.63 4.63 0 0 0-4.631 4.631V44.85h-4.875V16.575a4.63 4.63 0 0 0-4.631-4.631h-4.712a4.63 4.63 0 0 0-4.631 4.631V44.85H5.119V5.281c0-.975-.812-1.869-1.869-1.869s-1.869.813-1.869 1.869v39.731c0 1.869 1.544 3.494 3.494 3.494H48.75c.975 0 1.869-.812 1.869-1.869s-.894-1.788-1.869-1.788zm-33.556 0V16.575a.99.99 0 0 1 .975-.975h4.712a.99.99 0 0 1 .975.975V44.85h-6.663zm18.85 0V28.844a.99.99 0 0 1 .975-.975h4.712a.99.99 0 0 1 .975.975V44.85h-6.663z" fill="#9d74d3"/></symbol>
<symbol id="contentmarketing" width="43" height="43" fill="none"  ><path d="M38.305.266h-5.695c-2.25 0-4.149 1.688-4.359 3.867L11.094 5.82H4.695C2.305 5.82.336 7.719.336 10.039v11.602c0 1.617.984 3.094 2.391 3.797l2.461 13.57c.492 2.18 2.531 3.797 4.852 3.797a5.21 5.21 0 0 0 4.008-1.898c.844-1.055 1.195-2.391.914-3.656l-1.898-10.969 15.117 2.953c.141 2.32 2.039 4.148 4.359 4.148h5.695a4.46 4.46 0 0 0 4.43-4.43V4.625c0-2.391-1.969-4.359-4.359-4.359zM12.781 8.844L28.18 7.297V26l-15.398-3.023V8.844zM3.5 10.039c0-.492.492-1.055 1.195-1.055h4.922v13.711H4.695c-.633 0-1.195-.492-1.195-1.055V10.039zm8.086 28.898c-.351.422-.914.703-1.547.703-.844 0-1.617-.562-1.758-1.195l-2.25-12.586h3.727l2.039 11.953v.07c.141.492-.07.844-.211 1.055zM39.5 28.953a1.26 1.26 0 0 1-1.266 1.266h-5.695a1.26 1.26 0 0 1-1.266-1.266V4.625a1.26 1.26 0 0 1 1.266-1.266h5.695A1.26 1.26 0 0 1 39.5 4.625v24.328z" fill="#9d74d3"/></symbol>
<symbol id="copyrighting" width="52" height="52" fill="none"  ><path d="M50.537 9.669a2.52 2.52 0 0 0-.731-1.787l-2.844-2.925-2.6-2.6c-.406-.487-.894-.812-1.544-.894-.731-.081-1.381.081-1.95.569l-5.525 5.525H6.581c-2.762 0-5.119 2.275-5.119 5.119V45.5c0 2.762 2.275 5.119 5.119 5.119h32.906c2.762 0 5.119-2.275 5.119-5.119V16.656l5.281-5.281c.406-.487.65-1.056.65-1.706zM26.65 29.25c-.081.081-.081.081-.162.081l-5.85 1.95 1.95-5.85c0-.081.081-.081.081-.163l14.625-14.625 4.063 3.981L26.65 29.25zM40.869 45.5c0 .813-.65 1.462-1.462 1.462H6.581c-.812 0-1.463-.65-1.463-1.462V12.594c0-.812.65-1.463 1.463-1.463h25.025L20.069 22.75c-.406.406-.812.975-.975 1.625l-3.006 9.1c-.244.65-.081 1.219.244 1.788.244.325.731.813 1.625.813h.325l9.344-3.087c.569-.163 1.137-.569 1.544-.975l11.7-11.7V45.5zm3.006-33.394l-4.062-3.981 2.519-2.519 3.981 4.063-2.437 2.437z" fill="#9d74d3"/></symbol>
<symbol id="e-commerce" width="52" height="52" fill="#9d74d3"  ><path d="M30.144 38.837c-3.25 0-5.85 2.6-5.85 5.85s2.6 5.85 5.85 5.85 5.85-2.6 5.85-5.85c0-3.169-2.681-5.85-5.85-5.85zm0 8.125c-1.219 0-2.194-.975-2.194-2.194s.975-2.194 2.194-2.194 2.194.975 2.194 2.194c0 1.137-1.056 2.194-2.194 2.194zm-15.438-8.125c-3.25 0-5.85 2.6-5.85 5.85s2.6 5.85 5.85 5.85 5.85-2.6 5.85-5.85c0-3.169-2.681-5.85-5.85-5.85zm0 8.125c-1.219 0-2.194-.975-2.194-2.194s.975-2.194 2.194-2.194 2.194.975 2.194 2.194c0 1.137-.975 2.194-2.194 2.194zm32.582-45.5H42.9c-1.95 0-3.656 1.463-3.9 3.413l-1.3 9.344h-3.413V8.287c-.081-1.462-1.219-2.6-2.6-2.6h-6.012c-.244-1.219-1.3-2.113-2.519-2.113h-7.069c-1.381 0-2.6 1.219-2.6 2.762V7.88H7.556c-1.381 0-2.6 1.137-2.6 2.438V14.3a2.82 2.82 0 0 0-1.544.975c-.488.65-.731 1.544-.488 2.356v.163l5.038 15.194c.325 1.137 1.381 1.95 2.6 1.95h22.425c3.006 0 5.606-2.275 6.013-5.281l3.413-24.294c0-.162.163-.244.325-.244h4.388c.975 0 1.869-.812 1.869-1.869s-.731-1.787-1.706-1.787zM30.55 14.219h-4.875V9.344h4.875v4.875zM17.225 7.231H22.1v1.056 5.931h-4.875V10.4 7.231zm-8.531 4.225h4.875v2.762H8.694v-2.762zm26.813 17.631c-.163 1.219-1.219 2.113-2.437 2.113H11.294L6.906 17.875h30.225l-1.625 11.212z"/></symbol>
<symbol id="email" width="52" height="52" fill="none"  ><path d="M45.5 7.8h-39c-2.762 0-5.119 2.275-5.119 5.119v26.325c0 2.763 2.275 5.119 5.119 5.119h39c2.762 0 5.119-2.275 5.119-5.119V12.838c0-2.763-2.356-5.037-5.119-5.037zm0 3.656h.244L26 24.131 6.256 11.456H6.5h39zm0 29.088h-39c-.812 0-1.462-.65-1.462-1.462v-24.05L24.05 27.219c.569.406 1.219.569 1.869.569s1.3-.163 1.869-.569L46.8 15.031v24.131c.163.813-.487 1.381-1.3 1.381z" fill="#9d74d3"/></symbol>
<symbol id="influencer" width="52" height="52" fill="none"  ><path d="M43.334 4.334v4.333L8.667 17.334V13H4.334v26h4.333v-4.333L13 35.75v4.333c0 4.117 3.467 7.583 7.583 7.583s7.583-3.467 7.583-7.583v-.433l15.167 3.683v4.333h4.333V4.334h-4.333zm-19.5 35.75c0 1.733-1.517 3.25-3.25 3.25s-3.25-1.517-3.25-3.25v-3.25l6.5 1.733v1.517zM43.334 39L8.667 30.334v-8.667L43.334 13v26z" fill="#9d74d3"/></symbol>
<symbol id="local-seo" width="52" height="52" fill="#9d74d3"  ><path d="M49.075 40.869l-9.506-9.425c-.975-.975-2.275-1.544-3.656-1.544-.975 0-1.869.244-2.681.731l-4.225-4.225a15.43 15.43 0 0 0 3.331-9.588c0-4.144-1.625-8.044-4.55-10.969S20.962 1.3 16.819 1.3A15.43 15.43 0 0 0 5.85 5.85C2.925 8.775 1.3 12.675 1.3 16.819s1.625 8.044 4.55 10.969 6.825 4.55 10.969 4.55c3.494 0 6.825-1.137 9.587-3.331l4.225 4.225a5.11 5.11 0 0 0-.731 2.681c0 1.381.569 2.681 1.544 3.656l9.425 9.425c.975.975 2.275 1.544 3.656 1.544s2.681-.569 3.656-1.544l.894-.894c.975-.975 1.544-2.275 1.544-3.656 0-1.3-.569-2.6-1.544-3.575zm-40.544-15.6c-2.194-2.194-3.494-5.2-3.494-8.369s1.219-6.094 3.494-8.369 5.2-3.494 8.369-3.494 6.094 1.219 8.369 3.494 3.494 5.2 3.494 8.369-1.219 6.094-3.494 8.369-5.2 3.494-8.369 3.494-6.094-1.3-8.369-3.494zm37.944 20.313l-.894.894c-.569.569-1.544.569-2.194 0l-9.425-9.425c-.569-.569-.569-1.544 0-2.194l.894-.894c.325-.325.65-.406 1.056-.406s.813.163 1.056.406l9.425 9.425c.325.325.406.65.406 1.056.163.487 0 .894-.325 1.137zM20.069 10.319c-.731.731-.731 1.869 0 2.6 1.95 1.95 1.95 5.2 0 7.15-.731.731-.731 1.869 0 2.6.325.325.813.569 1.3.569s.975-.163 1.3-.569c1.625-1.625 2.519-3.819 2.519-6.175s-.894-4.469-2.519-6.175c-.731-.731-1.95-.731-2.6 0z"/></symbol>
<symbol id="photography" width="52" height="52" fill="none"  ><path d="M8.667 8.667h6.5L19.5 4.334h13l4.333 4.333h6.5c1.149 0 2.252.457 3.064 1.269s1.269 1.915 1.269 3.064v26c0 1.149-.457 2.251-1.269 3.064s-1.915 1.269-3.064 1.269H8.667c-1.149 0-2.251-.457-3.064-1.269S4.334 40.149 4.334 39V13c0-1.149.457-2.251 1.269-3.064s1.915-1.269 3.064-1.269zM26 15.167c-2.873 0-5.629 1.141-7.66 3.173s-3.173 4.787-3.173 7.66 1.141 5.629 3.173 7.66 4.787 3.173 7.66 3.173 5.629-1.141 7.66-3.173 3.173-4.787 3.173-7.66-1.141-5.629-3.173-7.66-4.787-3.173-7.66-3.173zm0 4.333a6.5 6.5 0 0 1 6.5 6.5 6.5 6.5 0 0 1-6.5 6.5 6.5 6.5 0 0 1-6.5-6.5 6.5 6.5 0 0 1 6.5-6.5z" fill="#9d74d3"/></symbol>
<symbol id="seo" width="52" height="42" fill="#9d74d3"  ><path d="M46.313.363H5.688C2.925.363.569 2.638.569 5.481v21.45c0 2.762 2.275 5.119 5.119 5.119h18.525v6.013h-8.937c-.975 0-1.869.813-1.869 1.869s.813 1.869 1.869 1.869h21.45c.975 0 1.869-.812 1.869-1.869s-.812-1.869-1.869-1.869H27.87V32.05h18.444c2.762 0 5.119-2.275 5.119-5.119V5.4c0-2.762-2.356-5.038-5.119-5.038zm1.462 26.487c0 .813-.65 1.462-1.462 1.462H5.688c-.812 0-1.462-.65-1.462-1.462V5.4c0-.812.65-1.463 1.462-1.463h40.625c.813 0 1.462.65 1.462 1.463v21.45zM13.081 11.575h3.25c.975 0 1.869-.812 1.869-1.869s-.812-1.869-1.869-1.869h-3.25c-2.763 0-5.038 2.275-5.038 5.037s2.275 5.038 5.038 5.038c.731 0 1.381.65 1.381 1.381s-.65 1.381-1.381 1.381h-3.25c-.975 0-1.869.813-1.869 1.869 0 .975.813 1.869 1.869 1.869h3.25c2.762 0 5.038-2.275 5.038-5.038s-2.275-5.037-5.037-5.037c-.731 0-1.381-.65-1.381-1.381s.65-1.381 1.381-1.381zm12.838 0h3.25c.975 0 1.869-.812 1.869-1.869s-.812-1.869-1.869-1.869h-3.25c-2.762 0-5.038 2.275-5.038 5.037v6.5c0 2.762 2.275 5.038 5.038 5.038h3.25c.975 0 1.869-.812 1.869-1.869 0-.975-.812-1.869-1.869-1.869h-3.25c-.731 0-1.381-.65-1.381-1.381v-1.381h4.631c.975 0 1.869-.812 1.869-1.869s-.812-1.869-1.869-1.869h-4.631v-1.381c0-.65.65-1.219 1.381-1.219zm13.812-3.656h-1.869c-2.275 0-4.144 1.869-4.144 4.144v8.288c0 2.275 1.869 4.144 4.144 4.144h1.869c2.275 0 4.144-1.869 4.144-4.144v-8.369c-.081-2.275-1.869-4.062-4.144-4.062zm.406 12.35c0 .244-.244.488-.488.488H37.78c-.244 0-.487-.244-.487-.488v-8.287c0-.244.244-.487.487-.487h1.869c.244 0 .488.244.488.487v8.288z"/></symbol>
<symbol id="social-commerce" width="52" height="52" fill="none"  ><path d="M26 11.917c2.011 0 3.94.799 5.362 2.221s2.221 3.351 2.221 5.362-.799 3.94-2.221 5.362-3.351 2.221-5.362 2.221-3.94-.799-5.362-2.221-2.221-3.351-2.221-5.362.799-3.94 2.221-5.362 3.351-2.221 5.362-2.221zm-15.167 5.417c1.213 0 2.34.325 3.315.91-.325 3.098.585 6.175 2.448 8.58-1.083 2.08-3.25 3.51-5.763 3.51a6.5 6.5 0 0 1-6.5-6.5 6.5 6.5 0 0 1 6.5-6.5zm30.333 0a6.5 6.5 0 0 1 6.5 6.5 6.5 6.5 0 0 1-6.5 6.5c-2.513 0-4.68-1.43-5.763-3.51 1.863-2.405 2.773-5.482 2.448-8.58.975-.585 2.102-.91 3.315-.91zm-29.25 22.208c0-4.485 6.305-8.125 14.083-8.125s14.083 3.64 14.083 8.125v3.792H11.917v-3.792zM0 43.333v-3.25c0-3.012 4.095-5.547 9.642-6.283-1.278 1.473-2.058 3.51-2.058 5.742v3.792H0zm52 0h-7.583v-3.792c0-2.232-.78-4.268-2.058-5.742 5.547.737 9.642 3.272 9.642 6.283v3.25z" fill="#9d74d3"/></symbol>
<symbol id="social-media" width="52" height="52" fill="none"  ><g clip-path="url(#A)" fill="#9d74d3"><path d="M51.106 15.6c-.081-2.6-.569-4.469-1.137-6.175s-1.463-3.088-2.844-4.469-2.763-2.194-4.388-2.844-3.412-1.056-6.175-1.137C33.719.813 32.906.813 26 .813L15.6.894c-2.762.081-4.469.569-6.175 1.138S6.338 3.575 4.956 4.956 2.681 7.719 2.113 9.425C1.463 11.05 1.056 12.838.975 15.6S.813 19.094.813 26l.081 10.4c.081 2.763.569 4.469 1.138 6.175s1.463 3.087 2.844 4.469 2.844 2.275 4.469 2.844a19.01 19.01 0 0 0 6.175 1.137c2.762.163 3.494.163 10.4.163l10.4-.081c2.762-.081 4.469-.569 6.175-1.137s3.088-1.463 4.469-2.844 2.275-2.844 2.844-4.469 1.056-3.412 1.138-6.175c.081-2.6.081-3.412.081-10.319l.081-10.563zm-4.55 20.556c-.081 2.438-.569 3.738-.894 4.712-.488 1.138-1.056 2.031-1.95 2.844-.894.894-1.706 1.381-2.844 1.95-.894.325-2.194.813-4.712.894H26.081c-6.662 0-7.556 0-10.156-.081-2.437-.081-3.738-.569-4.712-.894-1.138-.487-2.031-1.056-2.844-1.95-.894-.894-1.381-1.706-1.95-2.844-.325-.894-.812-2.194-.894-4.712V26l.081-10.156c.081-2.438.569-3.738.894-4.713.487-1.137 1.056-2.031 1.869-2.844.894-.894 1.706-1.381 2.844-1.869.894-.325 2.194-.812 4.713-.894 2.6-.081 3.412-.081 10.156-.081l10.156.081c2.438.081 3.738.569 4.713.894 1.137.487 2.031 1.056 2.844 1.869.894.894 1.381 1.706 1.95 2.844.325.894.813 2.194.894 4.713.081 2.6.081 3.412.081 10.156s-.081 7.556-.163 10.156zM26.001 13.081c-7.231 0-12.919 5.85-12.919 12.919 0 7.231 5.85 12.919 12.919 12.919s13-5.687 13-12.919-5.769-12.919-13-12.919zm0 21.369c-4.713 0-8.45-3.819-8.45-8.45a8.5 8.5 0 0 1 8.45-8.45 8.39 8.39 0 0 1 8.45 8.45 8.39 8.39 0 0 1-8.45 8.45zm13.568-18.931c1.66 0 3.006-1.346 3.006-3.006s-1.346-3.006-3.006-3.006-3.006 1.346-3.006 3.006 1.346 3.006 3.006 3.006z"/></g><defs><clipPath><path fill="#fff" d="M0 0h52v52H0z"/></clipPath></defs></symbol>
<symbol id="videography" width="52" height="52" fill="none"  ><path d="M49.319 22.506c-.812-.65-1.869-.894-2.925-.65l-7.719 1.706c-.244-2.519-2.437-4.55-5.038-4.55h-2.194a7.2 7.2 0 0 0 .894-3.494c0-3.9-3.169-7.15-7.069-7.15-3.737 0-6.744 2.844-7.069 6.5-.894-1.869-2.762-3.25-4.956-3.25-3.006 0-5.525 2.438-5.525 5.525 0 .65.081 1.219.325 1.869H6.5c-2.762 0-5.119 2.275-5.119 5.119v14.381c0 2.763 2.275 5.119 5.119 5.119h27.138c2.763 0 5.119-2.275 5.119-5.119v-.406l7.637 1.706c.244.081.488.081.731.081.813 0 1.544-.244 2.112-.731.813-.65 1.3-1.625 1.3-2.681V25.187c.081-1.056-.406-2.031-1.219-2.681zm-24.05-10.4c1.869 0 3.413 1.544 3.413 3.494s-1.544 3.494-3.413 3.494-3.494-1.544-3.494-3.494 1.625-3.494 3.494-3.494zm-6.175 6.906h-.65l.244-.975c.081.325.163.65.406.975zm-7.719-1.787c0-.975.813-1.869 1.869-1.869s1.869.813 1.869 1.869-.812 1.869-1.869 1.869-1.869-.894-1.869-1.869zM35.1 38.431c0 .813-.65 1.463-1.462 1.463H6.5c-.812 0-1.462-.65-1.462-1.463v-14.3c0-.812.65-1.462 1.462-1.462h27.138c.813 0 1.462.65 1.462 1.462v14.3zm11.863-2.275l-8.206-1.788V27.3l8.206-1.788v10.644z" fill="#9d74d3"/></symbol>
<symbol id="videomarketing" width="52" height="52" fill="none"  ><path d="M5.417 9.75h41.167c1.82 0 3.25 1.408 3.25 3.25v24.917c0 1.842-1.43 3.25-3.25 3.25H5.417a3.19 3.19 0 0 1-3.25-3.25V13a3.19 3.19 0 0 1 3.25-3.25zm15.622 8.667V32.5l12.372-7.15-12.372-6.933zM37.375 45.5H14.408a1.02 1.02 0 0 1-1.083-1.083 1.02 1.02 0 0 1 1.083-1.083h23.183a1.02 1.02 0 0 1 1.083 1.083c0 .65-.65 1.083-1.3 1.083z" fill="#9d74d3"/></symbol>
<symbol id="webdev" width="52" height="52" fill="none"  ><g clip-path="url(#A)" fill="#9d74d3"><path d="M38.538 15.438l.406-.894.406.894c.325.731 1.056 1.137 1.869 1.137s1.462-.406 1.869-1.137l2.031-4.144a1.78 1.78 0 0 0-.812-2.437c-.894-.406-2.031-.081-2.437.813l-.65 1.219-.406-.894c-.325-.731-1.056-1.137-1.869-1.137s-1.463.406-1.869 1.137l-.406.894-.569-1.3c-.487-.894-1.544-1.3-2.437-.812-.487.244-.812.731-.975 1.219-.081-.488-.488-.975-.975-1.219a1.78 1.78 0 0 0-2.437.813l-.65 1.219-.406-.894c-.325-.731-1.056-1.137-1.869-1.137s-1.463.406-1.869 1.137l-.406.894-.65-1.219c-.488-.894-1.544-1.3-2.437-.812-.488.244-.812.731-.975 1.219-.081-.488-.488-.975-.975-1.219a1.78 1.78 0 0 0-2.437.813l-.65 1.219-.406-.894c-.325-.731-1.056-1.137-1.869-1.137s-1.463.406-1.869 1.137l-.406.894-.65-1.219c-.487-.894-1.544-1.3-2.438-.812s-1.3 1.544-.812 2.438l2.031 4.144c.325.731 1.056 1.138 1.869 1.138s1.463-.406 1.869-1.138l.406-.894.406.894c.325.731 1.056 1.138 1.869 1.138s1.463-.406 1.869-1.138l2.031-4.144c.081-.162.081-.244.162-.406 0 .162.081.244.163.406l2.031 4.144c.325.731 1.056 1.138 1.869 1.138s1.463-.406 1.869-1.138l.406-.894.406.894c.325.731 1.056 1.138 1.869 1.138s1.462-.406 1.869-1.138l2.031-4.144c.081-.162.081-.244.163-.406 0 .162.081.244.162.406l2.031 4.144c.325.731 1.056 1.138 1.869 1.138.731.081 1.462-.406 1.787-1.056zM47.8 0H4.9C2.706 0 1 1.788 1 3.981v17.225c0 2.194 1.788 3.981 3.9 3.981h25.756c.975 0 1.869-.812 1.869-1.869s-.812-1.869-1.869-1.869H4.9c-.163 0-.244-.162-.244-.325V3.981c0-.163.081-.325.244-.325h42.981c.162 0 .244.163.244.325v17.225a.35.35 0 0 1-.325.325c-.975 0-1.869.813-1.869 1.869s.813 1.869 1.869 1.869a3.99 3.99 0 0 0 3.981-3.981V3.981A3.99 3.99 0 0 0 47.8 0zm2.356 29.738L38.7 23.969c-.975-.488-2.112-.325-2.763.406-.731.731-.894 1.869-.406 2.844L41.3 38.675c.487.894 1.381 1.544 2.438 1.544h.081c.894 0 1.706-.569 2.031-1.381l1.381-3.169 3.169-1.381c.813-.325 1.3-1.137 1.381-2.031-.081-1.138-.65-2.113-1.625-2.519zm-5.769 3.087l-.894 2.031-3.006-5.931 5.931 3.006-2.031.894z"/></g><defs><clipPath><path fill="#fff" d="M0 0h52v52H0z"/></clipPath></defs></symbol>
</symbol>
<symbol id="videography" width="52" height="52" fill="none"  ><path d="M49.319 22.506c-.812-.65-1.869-.894-2.925-.65l-7.719 1.706c-.244-2.519-2.437-4.55-5.038-4.55h-2.194a7.2 7.2 0 0 0 .894-3.494c0-3.9-3.169-7.15-7.069-7.15-3.737 0-6.744 2.844-7.069 6.5-.894-1.869-2.762-3.25-4.956-3.25-3.006 0-5.525 2.438-5.525 5.525 0 .65.081 1.219.325 1.869H6.5c-2.762 0-5.119 2.275-5.119 5.119v14.381c0 2.763 2.275 5.119 5.119 5.119h27.138c2.763 0 5.119-2.275 5.119-5.119v-.406l7.637 1.706c.244.081.488.081.731.081.813 0 1.544-.244 2.112-.731.813-.65 1.3-1.625 1.3-2.681V25.187c.081-1.056-.406-2.031-1.219-2.681zm-24.05-10.4c1.869 0 3.413 1.544 3.413 3.494s-1.544 3.494-3.413 3.494-3.494-1.544-3.494-3.494 1.625-3.494 3.494-3.494zm-6.175 6.906h-.65l.244-.975c.081.325.163.65.406.975zm-7.719-1.787c0-.975.813-1.869 1.869-1.869s1.869.813 1.869 1.869-.812 1.869-1.869 1.869-1.869-.894-1.869-1.869zM35.1 38.431c0 .813-.65 1.463-1.462 1.463H6.5c-.812 0-1.462-.65-1.462-1.463v-14.3c0-.812.65-1.462 1.462-1.462h27.138c.813 0 1.462.65 1.462 1.462v14.3zm11.863-2.275l-8.206-1.788V27.3l8.206-1.788v10.644z" fill="#9d74d3"/></symbol>
<symbol id="videomarketing" width="52" height="52" fill="none"  ><path d="M5.417 9.75h41.167c1.82 0 3.25 1.408 3.25 3.25v24.917c0 1.842-1.43 3.25-3.25 3.25H5.417a3.19 3.19 0 0 1-3.25-3.25V13a3.19 3.19 0 0 1 3.25-3.25zm15.622 8.667V32.5l12.372-7.15-12.372-6.933zM37.375 45.5H14.408a1.02 1.02 0 0 1-1.083-1.083 1.02 1.02 0 0 1 1.083-1.083h23.183a1.02 1.02 0 0 1 1.083 1.083c0 .65-.65 1.083-1.3 1.083z" fill="#9d74d3"/></symbol>
<symbol id="webdev" width="52" height="52" fill="none"  ><g clip-path="url(#A)" fill="#9d74d3"><path d="M38.538 15.438l.406-.894.406.894c.325.731 1.056 1.137 1.869 1.137s1.462-.406 1.869-1.137l2.031-4.144a1.78 1.78 0 0 0-.812-2.437c-.894-.406-2.031-.081-2.437.813l-.65 1.219-.406-.894c-.325-.731-1.056-1.137-1.869-1.137s-1.463.406-1.869 1.137l-.406.894-.569-1.3c-.487-.894-1.544-1.3-2.437-.812-.487.244-.812.731-.975 1.219-.081-.488-.488-.975-.975-1.219a1.78 1.78 0 0 0-2.437.813l-.65 1.219-.406-.894c-.325-.731-1.056-1.137-1.869-1.137s-1.463.406-1.869 1.137l-.406.894-.65-1.219c-.488-.894-1.544-1.3-2.437-.812-.488.244-.812.731-.975 1.219-.081-.488-.488-.975-.975-1.219a1.78 1.78 0 0 0-2.437.813l-.65 1.219-.406-.894c-.325-.731-1.056-1.137-1.869-1.137s-1.463.406-1.869 1.137l-.406.894-.65-1.219c-.487-.894-1.544-1.3-2.438-.812s-1.3 1.544-.812 2.438l2.031 4.144c.325.731 1.056 1.138 1.869 1.138s1.463-.406 1.869-1.138l.406-.894.406.894c.325.731 1.056 1.138 1.869 1.138s1.463-.406 1.869-1.138l2.031-4.144c.081-.162.081-.244.162-.406 0 .162.081.244.163.406l2.031 4.144c.325.731 1.056 1.138 1.869 1.138s1.463-.406 1.869-1.138l.406-.894.406.894c.325.731 1.056 1.138 1.869 1.138s1.462-.406 1.869-1.138l2.031-4.144c.081-.162.081-.244.163-.406 0 .162.081.244.162.406l2.031 4.144c.325.731 1.056 1.138 1.869 1.138.731.081 1.462-.406 1.787-1.056zM47.8 0H4.9C2.706 0 1 1.788 1 3.981v17.225c0 2.194 1.788 3.981 3.9 3.981h25.756c.975 0 1.869-.812 1.869-1.869s-.812-1.869-1.869-1.869H4.9c-.163 0-.244-.162-.244-.325V3.981c0-.163.081-.325.244-.325h42.981c.162 0 .244.163.244.325v17.225a.35.35 0 0 1-.325.325c-.975 0-1.869.813-1.869 1.869s.813 1.869 1.869 1.869a3.99 3.99 0 0 0 3.981-3.981V3.981A3.99 3.99 0 0 0 47.8 0zm2.356 29.738L38.7 23.969c-.975-.488-2.112-.325-2.763.406-.731.731-.894 1.869-.406 2.844L41.3 38.675c.487.894 1.381 1.544 2.438 1.544h.081c.894 0 1.706-.569 2.031-1.381l1.381-3.169 3.169-1.381c.813-.325 1.3-1.137 1.381-2.031-.081-1.138-.65-2.113-1.625-2.519zm-5.769 3.087l-.894 2.031-3.006-5.931 5.931 3.006-2.031.894z"/></g><defs><clipPath><path fill="#fff" d="M0 0h52v52H0z"/></clipPath></defs></symbol>
</svg>
