<svg xmlns="http://www.w3.org/2000/svg" width="52" height="52" fill="none"  ><path d="M49.319 22.506c-.812-.65-1.869-.894-2.925-.65l-7.719 1.706c-.244-2.519-2.437-4.55-5.038-4.55h-2.194a7.2 7.2 0 0 0 .894-3.494c0-3.9-3.169-7.15-7.069-7.15-3.737 0-6.744 2.844-7.069 6.5-.894-1.869-2.762-3.25-4.956-3.25-3.006 0-5.525 2.438-5.525 5.525 0 .65.081 1.219.325 1.869H6.5c-2.762 0-5.119 2.275-5.119 5.119v14.381c0 2.763 2.275 5.119 5.119 5.119h27.138c2.763 0 5.119-2.275 5.119-5.119v-.406l7.637 1.706c.244.081.488.081.731.081.813 0 1.544-.244 2.112-.731.813-.65 1.3-1.625 1.3-2.681V25.187c.081-1.056-.406-2.031-1.219-2.681zm-24.05-10.4c1.869 0 3.413 1.544 3.413 3.494s-1.544 3.494-3.413 3.494-3.494-1.544-3.494-3.494 1.625-3.494 3.494-3.494zm-6.175 6.906h-.65l.244-.975c.081.325.163.65.406.975zm-7.719-1.787c0-.975.813-1.869 1.869-1.869s1.869.813 1.869 1.869-.812 1.869-1.869 1.869-1.869-.894-1.869-1.869zM35.1 38.431c0 .813-.65 1.463-1.462 1.463H6.5c-.812 0-1.462-.65-1.462-1.463v-14.3c0-.812.65-1.462 1.462-1.462h27.138c.813 0 1.462.65 1.462 1.462v14.3zm11.863-2.275l-8.206-1.788V27.3l8.206-1.788v10.644z" fill="#9d74d3"/></svg>