<svg xmlns="http://www.w3.org/2000/svg" width="52" height="52" fill="none"  ><g clip-path="url(#A)" fill="#9d74d3"><path d="M38.538 15.438l.406-.894.406.894c.325.731 1.056 1.137 1.869 1.137s1.462-.406 1.869-1.137l2.031-4.144a1.78 1.78 0 0 0-.812-2.437c-.894-.406-2.031-.081-2.437.813l-.65 1.219-.406-.894c-.325-.731-1.056-1.137-1.869-1.137s-1.463.406-1.869 1.137l-.406.894-.569-1.3c-.487-.894-1.544-1.3-2.437-.812-.487.244-.812.731-.975 1.219-.081-.488-.488-.975-.975-1.219a1.78 1.78 0 0 0-2.437.813l-.65 1.219-.406-.894c-.325-.731-1.056-1.137-1.869-1.137s-1.463.406-1.869 1.137l-.406.894-.65-1.219c-.488-.894-1.544-1.3-2.437-.812-.488.244-.812.731-.975 1.219-.081-.488-.488-.975-.975-1.219a1.78 1.78 0 0 0-2.437.813l-.65 1.219-.406-.894c-.325-.731-1.056-1.137-1.869-1.137s-1.463.406-1.869 1.137l-.406.894-.65-1.219c-.487-.894-1.544-1.3-2.438-.812s-1.3 1.544-.812 2.438l2.031 4.144c.325.731 1.056 1.138 1.869 1.138s1.463-.406 1.869-1.138l.406-.894.406.894c.325.731 1.056 1.138 1.869 1.138s1.463-.406 1.869-1.138l2.031-4.144c.081-.162.081-.244.162-.406 0 .162.081.244.163.406l2.031 4.144c.325.731 1.056 1.138 1.869 1.138s1.463-.406 1.869-1.138l.406-.894.406.894c.325.731 1.056 1.138 1.869 1.138s1.462-.406 1.869-1.138l2.031-4.144c.081-.162.081-.244.163-.406 0 .162.081.244.162.406l2.031 4.144c.325.731 1.056 1.138 1.869 1.138.731.081 1.462-.406 1.787-1.056zM47.8 0H4.9C2.706 0 1 1.788 1 3.981v17.225c0 2.194 1.788 3.981 3.9 3.981h25.756c.975 0 1.869-.812 1.869-1.869s-.812-1.869-1.869-1.869H4.9c-.163 0-.244-.162-.244-.325V3.981c0-.163.081-.325.244-.325h42.981c.162 0 .244.163.244.325v17.225a.35.35 0 0 1-.325.325c-.975 0-1.869.813-1.869 1.869s.813 1.869 1.869 1.869a3.99 3.99 0 0 0 3.981-3.981V3.981A3.99 3.99 0 0 0 47.8 0zm2.356 29.738L38.7 23.969c-.975-.488-2.112-.325-2.763.406-.731.731-.894 1.869-.406 2.844L41.3 38.675c.487.894 1.381 1.544 2.438 1.544h.081c.894 0 1.706-.569 2.031-1.381l1.381-3.169 3.169-1.381c.813-.325 1.3-1.137 1.381-2.031-.081-1.138-.65-2.113-1.625-2.519zm-5.769 3.087l-.894 2.031-3.006-5.931 5.931 3.006-2.031.894z"/></g><defs><clipPath id="A"><path fill="#fff" d="M0 0h52v52H0z"/></clipPath></defs></svg>